<svg width="512" height="512" viewBox="0 0 512 512" fill="none" xmlns="http://www.w3.org/2000/svg">
  <!-- Background circle -->
  <circle cx="256" cy="256" r="256" fill="#0f172a"/>

  <!-- Bible/book icon -->
  <rect x="140" y="120" width="232" height="280" rx="16" fill="#ffffff"/>
  <rect x="156" y="136" width="200" height="248" rx="8" fill="#0f172a"/>

  <!-- Pages -->
  <rect x="172" y="152" width="168" height="4" fill="#ffffff"/>
  <rect x="172" y="168" width="140" height="4" fill="#ffffff"/>
  <rect x="172" y="184" width="168" height="4" fill="#ffffff"/>
  <rect x="172" y="200" width="124" height="4" fill="#ffffff"/>

  <!-- Clock overlay -->
  <circle cx="380" cy="160" r="48" fill="#10b981" stroke="#ffffff" stroke-width="4"/>
  <line x1="380" y1="160" x2="380" y2="132" stroke="#ffffff" stroke-width="3" stroke-linecap="round"/>
  <line x1="380" y1="160" x2="400" y2="160" stroke="#ffffff" stroke-width="3" stroke-linecap="round"/>

  <!-- Service hours lines -->
  <rect x="172" y="240" width="168" height="4" fill="#10b981"/>
  <rect x="172" y="256" width="140" height="4" fill="#10b981"/>
  <rect x="172" y="272" width="168" height="4" fill="#10b981"/>
  <rect x="172" y="288" width="124" height="4" fill="#10b981"/>

  <!-- Bottom section -->
  <rect x="172" y="320" width="168" height="4" fill="#ffffff"/>
  <rect x="172" y="336" width="140" height="4" fill="#ffffff"/>
  <rect x="172" y="352" width="100" height="4" fill="#ffffff"/>
</svg>
